# xmcd
#
# Track frame offsets:
#	150
#	28252
#	47820
#	76447
#	88912
#	114432
#	130557
#	151397
#	170410
#	193340
#	219060
#	224752
#	239390
#	256352
#	278185
#	295187
#	320310
#
# Disc length: 4472 seconds
#
# Revision: 4
# Processed by: cddbd v1.5.2PL0 Copyright (c) Steve Scherf et al.
# Submitted via: audiograbber 1.83.01
#
DISCID=fb117611
DTITLE=Nina Simone - The Gold Collection - Classic Performances [CD2)
DYEAR=1997
DGENRE=Pop
TTITLE0=Ain't Got No - I Got Life
TTITLE1=No Opportunity Necessary
TTITLE2=Young, Gifted and Black
TTITLE3=Ain't No Use
TTITLE4=After You've Gone
TTITLE5=Sugar in My Bowl
TTITLE6=Mississippi Goddamn
TTITLE7=The Other Woman
TTITLE8=I Love You Porgy
TTITLE9=For a While
TTITLE10=You Took My Teeth
TTITLE11=Backlash Blues
TTITLE12=Do What You Gotta Do
TTITLE13=Four Women
TTITLE14=I Just Sing to Know That I'm Alive
TTITLE15=Touching and Caring
TTITLE16=Saratoga
EXTD=
EXTT0=
EXTT1=
EXTT2=
EXTT3=
EXTT4=
EXTT5=
EXTT6=
EXTT7=
EXTT8=
EXTT9=
EXTT10=
EXTT11=
EXTT12=
EXTT13=
EXTT14=
EXTT15=
EXTT16=
PLAYORDER=
